<svg fill="#000000" xmlns="http://www.w3.org/2000/svg"  viewBox="0 0 50 50" width="18px" height="18px"><path d="M 14 0 C 12.083334 0 10.518559 0.75475559 9.5019531 1.8984375 C 8.4853474 3.0421194 8 4.5277779 8 6 C 8 7.4722221 8.4853474 8.9578811 9.5019531 10.101562 C 10.518559 11.245245 12.083334 12 14 12 C 17.301865 12 20 9.3018628 20 6 C 20 2.6981372 17.301865 0 14 0 z M 37.939453 0 C 36.022787 0 34.459965 0.75475559 33.443359 1.8984375 C 33.134209 2.2462318 32.880403 2.6282476 32.667969 3.0292969 C 30.40984 3.1808527 28.900725 4.8067682 28.099609 6.4609375 C 27.258791 8.1970869 27 9.9875892 27 11 A 1.0001 1.0001 0 0 0 28 12 L 32 12 A 1.0001 1.0001 0 0 0 32.990234 11.140625 L 33.183594 9.78125 C 33.266974 9.8901173 33.351336 9.9980358 33.443359 10.101562 C 34.459965 11.245244 36.022787 12 37.939453 12 C 39.923866 12 41.685668 11.021813 42.779297 9.5273438 L 43.009766 11.140625 A 1.0001 1.0001 0 0 0 44 12 L 48 12 A 1.0001 1.0001 0 0 0 49 11 C 49 9.9875892 48.741209 8.1970869 47.900391 6.4609375 C 47.075453 4.7575801 45.504582 3.0750433 43.132812 3.0117188 C 42.093361 1.2159684 40.154162 0 37.939453 0 z M 14 2 C 16.220986 2 18 3.7790155 18 6 C 18 8.2209845 16.220986 10 14 10 C 12.583334 10 11.648107 9.5047556 10.998047 8.7734375 C 10.347987 8.0421194 10 7.0277779 10 6 C 10 4.9722221 10.347987 3.9578806 10.998047 3.2265625 C 11.648107 2.4952444 12.583334 2 14 2 z M 37.939453 2 C 40.160439 2 41.939453 3.7790155 41.939453 6 C 41.939453 8.2209845 40.160439 10 37.939453 10 C 36.522787 10 35.58756 9.5047556 34.9375 8.7734375 C 34.28744 8.0421194 33.939453 7.0277779 33.939453 6 C 33.939453 4.9722221 34.28744 3.9578806 34.9375 3.2265625 C 35.58756 2.4952444 36.522787 2 37.939453 2 z M 31.787109 5.421875 L 31.132812 10 L 29.246094 10 C 29.351215 9.2031789 29.420948 8.3220011 29.900391 7.3320312 C 30.347497 6.4088316 30.993446 5.804768 31.787109 5.421875 z M 44.212891 5.421875 C 45.006554 5.804768 45.652503 6.4088316 46.099609 7.3320312 C 46.579052 8.3220011 46.648785 9.2031789 46.753906 10 L 44.867188 10 L 44.212891 5.421875 z M 9.9375 13 C 6.8654096 13 4.1446403 15.012402 3.2441406 17.949219 L 0.71289062 26.207031 A 1.0001 1.0001 0 0 0 0.71289062 26.210938 C 0.23828339 27.783074 1.1312007 29.48013 2.7109375 29.957031 C 4.2814082 30.431136 5.9672045 29.533906 6.4550781 27.966797 L 7 26.298828 L 7 32 L 7 41 C 7 42.645455 8.3545455 44 10 44 C 11.645455 44 13 42.645455 13 41 L 13 33 L 15 33 L 15 41 C 15 42.645455 16.354545 44 18 44 C 19.645455 44 21 42.645455 21 41 L 21 32 L 21 26.568359 L 21.433594 27.958984 C 21.910495 29.538721 23.604309 30.434766 25.171875 29.957031 C 25.738669 29.785588 26.083021 29.329762 26.441406 28.90625 C 26.800011 29.329589 27.143981 29.785875 27.710938 29.957031 C 28.130524 30.083699 28.516763 29.889701 28.927734 29.833984 L 28.044922 32.705078 A 1.0001 1.0001 0 0 0 29 34 L 33 34 L 33 41 C 33 42.64497 34.35503 44 36 44 C 36.776965 44 37.464634 43.65838 38 43.166016 C 38.535366 43.65838 39.223035 44 40 44 C 41.64497 44 43 42.64497 43 41 L 43 34 L 47 34 A 1.0001 1.0001 0 0 0 47.955078 32.705078 L 47.076172 29.847656 C 47.448923 29.881926 47.795111 30.071855 48.171875 29.957031 C 49.750644 29.479486 50.64242 27.782558 50.167969 26.210938 A 1.0001 1.0001 0 0 0 50.166016 26.207031 L 47.636719 17.949219 C 46.736219 15.012402 44.01545 13 40.943359 13 L 34.9375 13 C 31.86541 13 29.14464 15.012402 28.244141 17.949219 L 26.439453 23.835938 L 24.636719 17.949219 C 23.736219 15.012402 21.01545 13 17.943359 13 L 9.9375 13 z M 9.9375 15 L 17.943359 15 C 20.145269 15 22.079109 16.429973 22.724609 18.535156 L 25.251953 26.789062 C 25.417346 27.336927 25.13206 27.87987 24.591797 28.042969 A 1.0001 1.0001 0 0 0 24.587891 28.042969 C 24.055457 28.205234 23.510755 27.921123 23.347656 27.380859 A 1.0001 1.0001 0 0 0 23.34375 27.373047 L 20.955078 19.703125 A 1.0001 1.0001 0 0 0 19 20 L 19 25 L 9 25 L 9 20 A 1.0001 1.0001 0 0 0 7.0488281 19.689453 L 4.5488281 27.359375 A 1.0001 1.0001 0 0 0 4.5449219 27.373047 C 4.3727993 27.92594 3.8385918 28.208864 3.2890625 28.042969 C 2.7487993 27.87987 2.4615604 27.336927 2.6269531 26.789062 L 5.15625 18.535156 C 5.8017503 16.429973 7.7355904 15 9.9375 15 z M 34.9375 15 L 40.943359 15 C 43.145269 15 45.079109 16.429973 45.724609 18.535156 L 48.251953 26.789062 C 48.417346 27.336927 48.13206 27.87987 47.591797 28.042969 A 1.0001 1.0001 0 0 0 47.587891 28.042969 C 47.055457 28.205234 46.510755 27.921123 46.347656 27.380859 A 1.0001 1.0001 0 0 0 46.34375 27.373047 L 43.955078 19.705078 L 43.955078 19.703125 A 1.0001 1.0001 0 0 0 42.044922 20.294922 L 42.044922 20.296875 L 42.091797 20.447266 L 45.646484 32 L 30.353516 32 L 33.935547 20.359375 L 33.951172 20.310547 L 33.955078 20.294922 A 1.0001 1.0001 0 0 0 32.048828 19.689453 L 32.044922 19.705078 L 29.548828 27.359375 A 1.0001 1.0001 0 0 0 29.544922 27.373047 C 29.372795 27.925938 28.838593 28.208864 28.289062 28.042969 C 27.748788 27.879874 27.46156 27.336926 27.626953 26.789062 L 30.15625 18.535156 C 30.80175 16.429973 32.73559 15 34.9375 15 z M 9 27 L 19 27 L 19 31 L 16 31 L 12 31 L 9 31 L 9 27 z M 9 33 L 11 33 L 11 41 C 11 41.554545 10.554545 42 10 42 C 9.4454545 42 9 41.554545 9 41 L 9 33 z M 17 33 L 19 33 L 19 41 C 19 41.554545 18.554545 42 18 42 C 17.445455 42 17 41.554545 17 41 L 17 33 z M 35 34 L 37 34 L 37 41 C 37 41.56503 36.56503 42 36 42 C 35.43497 42 35 41.56503 35 41 L 35 34 z M 39 34 L 41 34 L 41 41 C 41 41.56503 40.56503 42 40 42 C 39.43497 42 39 41.56503 39 41 L 39 34 z M 46.96875 36.162109 C 46.71 36.187109 46.459063 36.304766 46.289062 36.509766 C 46.139062 36.689766 46.060547 36.910391 46.060547 37.150391 C 46.060547 37.450391 46.189922 37.729922 46.419922 37.919922 C 47.469922 38.779922 48 39.650234 48 40.490234 C 48 41.040234 48.45 41.480469 49 41.480469 L 49.009766 41.480469 C 49.269766 41.480469 49.520938 41.379453 49.710938 41.189453 C 49.900937 40.999453 50 40.740469 50 40.480469 C 49.99 39.020469 49.189219 37.599141 47.699219 36.369141 C 47.494219 36.204141 47.2275 36.137109 46.96875 36.162109 z M 3.0214844 36.173828 C 2.7627344 36.150078 2.4940625 36.220625 2.2890625 36.390625 C 0.7890625 37.620625 0 39.04 0 40.5 C 0 41.05 0.45 41.5 1 41.5 C 1.55 41.5 2 41.05 2 40.5 C 2 39.66 2.5205469 38.789687 3.5605469 37.929688 C 3.9905469 37.579688 4.0492187 36.939531 3.6992188 36.519531 C 3.5292187 36.314531 3.2802344 36.197578 3.0214844 36.173828 z M 2.859375 42.878906 C 2.600625 42.905156 2.3496875 43.025469 2.1796875 43.230469 C 2.0096875 43.440469 1.9309375 43.700938 1.9609375 43.960938 C 1.9909375 44.230938 2.1103125 44.470625 2.3203125 44.640625 C 3.2703125 45.420625 4.51 46.139063 6 46.789062 C 6.13 46.839062 6.2603906 46.869141 6.4003906 46.869141 C 6.8003906 46.869141 7.1603125 46.639531 7.3203125 46.269531 C 7.3703125 46.149531 7.4003906 46.020859 7.4003906 45.880859 C 7.4003906 45.480859 7.1707813 45.110937 6.8007812 44.960938 C 5.4807813 44.380938 4.3998438 43.749844 3.5898438 43.089844 C 3.3848438 42.919844 3.118125 42.852656 2.859375 42.878906 z M 45.310547 43.96875 C 45.181641 43.982656 45.054453 44.022344 44.939453 44.089844 C 44.939453 44.089844 44.929688 44.089609 44.929688 44.099609 C 43.959688 44.649609 42.790937 45.170859 41.460938 45.630859 C 40.940937 45.810859 40.659844 46.380391 40.839844 46.900391 C 40.979844 47.310391 41.359063 47.580078 41.789062 47.580078 C 41.899062 47.580078 42.009375 47.559531 42.109375 47.519531 C 43.569375 47.019531 44.849453 46.450313 45.939453 45.820312 C 46.249453 45.650313 46.439453 45.310938 46.439453 44.960938 C 46.439453 44.780938 46.390547 44.610937 46.310547 44.460938 C 46.108047 44.115938 45.697266 43.927031 45.310547 43.96875 z M 11.945312 46.693359 C 11.561406 46.765547 11.230625 47.059219 11.140625 47.449219 C 11.020625 47.989219 11.360391 48.530391 11.900391 48.650391 C 13.150391 48.930391 14.500156 49.180859 15.910156 49.380859 C 15.960156 49.390859 16.000781 49.390625 16.050781 49.390625 C 16.550781 49.390625 16.969062 49.019297 17.039062 48.529297 C 17.049063 48.479297 17.050781 48.430859 17.050781 48.380859 C 17.050781 47.880859 16.689219 47.470391 16.199219 47.400391 L 16.189453 47.400391 C 14.849453 47.210391 13.549844 46.969219 12.339844 46.699219 C 12.207344 46.669219 12.073281 46.669297 11.945312 46.693359 z M 35.800781 47.080078 C 34.560781 47.300078 33.260156 47.490625 31.910156 47.640625 C 31.640156 47.670625 31.410234 47.79 31.240234 48 C 31.070234 48.21 30.989531 48.470234 31.019531 48.740234 C 31.079531 49.250234 31.499531 49.630859 32.019531 49.630859 C 32.049531 49.630859 32.089141 49.629141 32.119141 49.619141 C 33.529141 49.469141 34.890391 49.279063 36.150391 49.039062 C 36.630391 48.959062 36.980469 48.540547 36.980469 48.060547 C 36.970469 48.000547 36.970937 47.940859 36.960938 47.880859 C 36.860938 47.350859 36.340781 46.980078 35.800781 47.080078 z M 22.070312 47.939453 C 21.500312 47.909453 21.049297 48.340625 21.029297 48.890625 C 21.019297 49.160625 21.109063 49.409375 21.289062 49.609375 C 21.469063 49.809375 21.720469 49.919688 21.980469 49.929688 C 22.960469 49.979687 23.98 50 25 50 C 25.33 50 25.660469 50.000234 25.980469 49.990234 C 26.010469 49.990234 26.030547 50.000234 26.060547 49.990234 C 26.590547 49.980234 27.019297 49.539766 27.029297 49.009766 L 27.029297 48.980469 C 27.019297 48.440469 26.569297 47.990234 26.029297 47.990234 L 26.009766 47.990234 C 25.709766 48.000234 25.39 48 25 48 C 24.04 48 23.050313 47.979453 22.070312 47.939453 z"/></svg>