<?xml version="1.0" encoding="UTF-8"?>
<svg xmlns="http://www.w3.org/2000/svg" xmlns:xlink="http://www.w3.org/1999/xlink" viewBox="0 0 50 50" width="18px" height="18px">
<g id="surface15271175">
<path style=" stroke:none;fill-rule:nonzero;fill-opacity:1;" d="M 33.226562 8.34375 C 33.035156 8.339844 32.847656 8.390625 32.683594 8.492188 L 28.847656 10.789062 C 28.410156 10.949219 27.925781 10.953125 27.488281 10.777344 C 27.488281 10.773438 27.488281 10.773438 27.488281 10.773438 L 27.296875 10.695312 C 24.820312 9.691406 21.984375 10.085938 19.875 11.734375 L 19.078125 12.355469 C 18.992188 12.367188 18.90625 12.390625 18.824219 12.421875 C 14.265625 14.246094 10.734375 11.976562 10.734375 11.976562 C 10.433594 11.785156 10.054688 11.769531 9.734375 11.9375 C 9.417969 12.101562 9.214844 12.425781 9.199219 12.78125 C 9.1875 13.140625 9.363281 13.476562 9.664062 13.667969 C 9.664062 13.667969 12.117188 15.164062 15.578125 15.085938 L 13.3125 16.851562 C 11.632812 18.167969 11.328125 20.625 12.640625 22.308594 C 13.953125 23.988281 16.410156 24.289062 18.09375 22.976562 L 22.839844 19.273438 C 23.160156 19.453125 23.550781 19.664062 24.429688 19.996094 L 26.414062 22.484375 L 34.441406 32.554688 C 34.441406 32.554688 34.445312 32.558594 34.449219 32.5625 C 35.035156 33.273438 34.878906 34.292969 34.109375 34.804688 C 33.453125 35.238281 32.59375 35.109375 32.09375 34.496094 L 31.632812 33.941406 C 31.632812 33.9375 31.632812 33.9375 31.632812 33.9375 L 31.410156 33.664062 C 31.40625 33.664062 31.40625 33.664062 31.40625 33.660156 C 31.386719 33.636719 31.363281 33.613281 31.339844 33.585938 C 31.292969 33.539062 31.242188 33.5 31.1875 33.460938 C 31.160156 33.441406 31.132812 33.425781 31.101562 33.40625 C 31.074219 33.390625 31.042969 33.378906 31.015625 33.363281 C 31.011719 33.363281 31.011719 33.363281 31.011719 33.363281 C 30.855469 33.300781 30.6875 33.277344 30.523438 33.292969 C 30.488281 33.296875 30.457031 33.300781 30.421875 33.304688 C 30.324219 33.328125 30.230469 33.363281 30.140625 33.410156 C 30.113281 33.425781 30.085938 33.445312 30.058594 33.460938 C 30.03125 33.480469 30.003906 33.5 29.976562 33.523438 C 29.953125 33.546875 29.929688 33.566406 29.90625 33.589844 C 29.667969 33.835938 29.574219 34.1875 29.652344 34.515625 C 29.660156 34.550781 29.667969 34.582031 29.679688 34.613281 C 29.703125 34.675781 29.730469 34.738281 29.761719 34.792969 C 29.78125 34.824219 29.796875 34.851562 29.816406 34.875 C 29.816406 34.878906 29.816406 34.878906 29.816406 34.878906 C 29.832031 34.898438 29.847656 34.914062 29.859375 34.933594 L 30.085938 35.207031 C 30.671875 35.917969 30.515625 36.941406 29.746094 37.445312 C 29.089844 37.878906 28.230469 37.75 27.730469 37.140625 L 27.277344 36.585938 L 27.273438 36.585938 L 27.046875 36.308594 C 27.027344 36.28125 27.003906 36.257812 26.980469 36.234375 C 26.914062 36.164062 26.832031 36.101562 26.742188 36.054688 C 26.714844 36.039062 26.683594 36.023438 26.652344 36.011719 C 26.59375 35.984375 26.527344 35.964844 26.460938 35.953125 C 26.398438 35.941406 26.335938 35.933594 26.269531 35.933594 C 26.265625 35.933594 26.265625 35.933594 26.261719 35.933594 C 26.128906 35.933594 25.996094 35.960938 25.875 36.011719 C 25.753906 36.066406 25.640625 36.144531 25.546875 36.238281 C 25.527344 36.261719 25.503906 36.289062 25.480469 36.3125 C 25.460938 36.339844 25.441406 36.367188 25.421875 36.394531 C 25.40625 36.425781 25.390625 36.453125 25.375 36.480469 C 25.375 36.484375 25.375 36.484375 25.375 36.484375 C 25.359375 36.511719 25.347656 36.542969 25.332031 36.570312 C 25.332031 36.574219 25.332031 36.574219 25.332031 36.574219 C 25.320312 36.605469 25.3125 36.636719 25.300781 36.667969 C 25.292969 36.703125 25.285156 36.734375 25.28125 36.765625 C 25.277344 36.800781 25.273438 36.832031 25.269531 36.867188 C 25.265625 36.898438 25.265625 36.933594 25.265625 36.964844 C 25.265625 36.96875 25.265625 36.972656 25.265625 36.976562 C 25.273438 37.0625 25.289062 37.148438 25.3125 37.230469 C 25.316406 37.238281 25.320312 37.25 25.320312 37.257812 C 25.320312 37.257812 25.320312 37.257812 25.320312 37.261719 C 25.332031 37.289062 25.34375 37.320312 25.359375 37.351562 C 25.367188 37.367188 25.375 37.382812 25.382812 37.398438 C 25.390625 37.414062 25.398438 37.425781 25.402344 37.441406 C 25.40625 37.441406 25.40625 37.441406 25.40625 37.441406 C 25.421875 37.46875 25.441406 37.496094 25.457031 37.523438 C 25.460938 37.523438 25.460938 37.523438 25.460938 37.527344 C 25.476562 37.542969 25.488281 37.5625 25.503906 37.578125 C 25.503906 37.578125 25.503906 37.578125 25.503906 37.582031 L 25.628906 37.734375 L 25.730469 37.855469 C 26.3125 38.5625 26.160156 39.582031 25.398438 40.09375 C 24.738281 40.527344 23.875 40.398438 23.375 39.789062 L 22.921875 39.242188 C 22.921875 39.238281 22.921875 39.238281 22.921875 39.238281 L 22.691406 38.957031 C 22.683594 38.945312 22.675781 38.9375 22.667969 38.929688 L 22.558594 38.800781 C 22.335938 38.511719 21.976562 38.367188 21.617188 38.425781 C 21.253906 38.480469 20.953125 38.726562 20.832031 39.070312 C 20.707031 39.414062 20.777344 39.796875 21.015625 40.070312 L 21.144531 40.226562 L 21.378906 40.511719 C 21.953125 41.214844 21.808594 42.21875 21.0625 42.734375 C 20.402344 43.183594 19.53125 43.0625 19.023438 42.445312 L 17.132812 40.148438 L 17.476562 39.867188 C 18.820312 38.761719 19.015625 36.753906 17.914062 35.414062 C 17.382812 34.765625 16.636719 34.398438 15.859375 34.300781 C 15.914062 33.519531 15.699219 32.714844 15.167969 32.070312 C 14.636719 31.421875 13.890625 31.054688 13.113281 30.957031 C 13.167969 30.175781 12.957031 29.371094 12.421875 28.726562 C 11.890625 28.078125 11.144531 27.710938 10.367188 27.613281 C 10.421875 26.832031 10.207031 26.027344 9.675781 25.382812 C 8.578125 24.039062 6.566406 23.84375 5.226562 24.945312 L 4.882812 25.226562 L 2.773438 22.65625 C 2.550781 22.371094 2.191406 22.230469 1.832031 22.285156 C 1.476562 22.34375 1.175781 22.589844 1.050781 22.925781 C 0.925781 23.265625 0.992188 23.644531 1.226562 23.921875 L 3.464844 26.652344 C 2.777344 27.769531 2.796875 29.242188 3.671875 30.3125 C 4.207031 30.957031 4.953125 31.324219 5.730469 31.421875 C 5.675781 32.203125 5.886719 33.007812 6.417969 33.65625 C 6.953125 34.300781 7.695312 34.667969 8.472656 34.765625 C 8.417969 35.546875 8.632812 36.351562 9.164062 37 C 9.695312 37.644531 10.441406 38.011719 11.21875 38.109375 C 11.164062 38.890625 11.378906 39.695312 11.910156 40.34375 C 12.785156 41.410156 14.226562 41.71875 15.457031 41.257812 L 17.476562 43.714844 C 18.632812 45.117188 20.691406 45.410156 22.191406 44.382812 C 23.003906 43.828125 23.484375 42.980469 23.640625 42.082031 C 24.605469 42.351562 25.621094 42.34375 26.503906 41.757812 C 27.335938 41.203125 27.832031 40.347656 27.992188 39.4375 C 28.953125 39.707031 29.964844 39.699219 30.84375 39.121094 C 31.683594 38.566406 32.1875 37.707031 32.351562 36.789062 C 33.3125 37.0625 34.328125 37.054688 35.210938 36.472656 C 36.542969 35.59375 37.054688 33.960938 36.632812 32.523438 C 36.664062 32.507812 36.691406 32.492188 36.71875 32.476562 L 49.042969 24.925781 L 39.925781 10.121094 L 25.9375 18.679688 C 25.910156 18.644531 25.878906 18.613281 25.84375 18.585938 C 25.84375 18.582031 25.84375 18.582031 25.839844 18.582031 C 25.714844 18.410156 25.539062 18.285156 25.335938 18.222656 C 24.03125 17.792969 23.230469 17.277344 23.230469 17.277344 C 22.875 17.046875 22.414062 17.070312 22.078125 17.332031 L 16.863281 21.402344 C 16.035156 22.050781 14.867188 21.90625 14.21875 21.078125 C 13.570312 20.246094 13.714844 19.078125 14.542969 18.429688 L 21.105469 13.308594 C 22.652344 12.101562 24.726562 11.8125 26.546875 12.550781 L 26.734375 12.628906 C 27.652344 13 28.675781 13.007812 29.597656 12.652344 C 29.652344 12.632812 29.703125 12.605469 29.75 12.578125 L 33.710938 10.210938 C 34.097656 9.984375 34.289062 9.527344 34.175781 9.09375 C 34.066406 8.65625 33.675781 8.351562 33.226562 8.34375 Z M 39.269531 12.867188 L 46.289062 24.265625 L 35.675781 30.769531 C 35.65625 30.78125 35.632812 30.796875 35.613281 30.8125 L 35.089844 30.15625 C 37.398438 28.640625 37.800781 25.285156 36.195312 22.722656 C 34.980469 20.734375 32.875 19.566406 30.882812 19.730469 C 30.21875 19.78125 29.574219 19.984375 28.976562 20.351562 C 28.578125 20.578125 28.238281 20.867188 27.949219 21.195312 L 27.199219 20.253906 Z M 39.894531 18.652344 C 39.601562 18.636719 39.300781 18.710938 39.03125 18.871094 L 39.027344 18.871094 C 38.308594 19.308594 38.082031 20.246094 38.519531 20.964844 C 38.957031 21.6875 39.894531 21.914062 40.613281 21.476562 C 41.332031 21.039062 41.558594 20.101562 41.121094 19.382812 C 40.851562 18.933594 40.382812 18.675781 39.894531 18.652344 Z M 31.089844 21.726562 C 32.257812 21.652344 33.625 22.347656 34.488281 23.765625 L 34.496094 23.78125 C 35.632812 25.585938 35.214844 27.738281 33.933594 28.527344 L 33.929688 28.527344 C 33.894531 28.546875 33.863281 28.5625 33.835938 28.582031 L 29.226562 22.804688 C 29.417969 22.5 29.660156 22.257812 29.976562 22.078125 L 29.992188 22.070312 L 30.003906 22.058594 C 30.328125 21.863281 30.699219 21.75 31.085938 21.726562 Z M 7.347656 26.222656 C 7.640625 26.253906 7.925781 26.398438 8.132812 26.648438 C 8.546875 27.15625 8.476562 27.871094 7.972656 28.285156 L 6.859375 29.199219 C 6.351562 29.617188 5.632812 29.546875 5.21875 29.039062 C 4.8125 28.542969 4.882812 27.855469 5.363281 27.433594 C 5.414062 27.394531 5.464844 27.347656 5.507812 27.296875 L 6.496094 26.488281 C 6.746094 26.28125 7.054688 26.195312 7.347656 26.222656 Z M 10.09375 29.566406 C 10.386719 29.597656 10.671875 29.742188 10.878906 29.992188 C 11.292969 30.5 11.222656 31.214844 10.71875 31.628906 L 9.605469 32.542969 C 9.097656 32.960938 8.378906 32.890625 7.964844 32.382812 C 7.550781 31.878906 7.621094 31.164062 8.125 30.746094 L 9.242188 29.832031 C 9.492188 29.625 9.800781 29.539062 10.09375 29.566406 Z M 12.839844 32.910156 C 13.132812 32.941406 13.414062 33.085938 13.625 33.335938 C 14.039062 33.84375 13.96875 34.558594 13.464844 34.972656 L 12.347656 35.890625 C 11.84375 36.304688 11.125 36.234375 10.710938 35.730469 L 10.710938 35.726562 C 10.296875 35.222656 10.367188 34.507812 10.871094 34.089844 L 11.984375 33.175781 L 11.988281 33.175781 C 12.238281 32.972656 12.542969 32.882812 12.839844 32.910156 Z M 15.585938 36.253906 C 15.878906 36.285156 16.160156 36.429688 16.371094 36.679688 C 16.785156 37.1875 16.714844 37.902344 16.207031 38.320312 L 15.226562 39.125 C 15.167969 39.160156 15.109375 39.199219 15.058594 39.246094 C 14.554688 39.632812 13.863281 39.566406 13.457031 39.074219 C 13.042969 38.566406 13.113281 37.851562 13.617188 37.433594 L 14.730469 36.519531 L 14.734375 36.519531 C 14.984375 36.316406 15.289062 36.226562 15.585938 36.253906 Z M 15.585938 36.253906 "/>
</g>
</svg>
