<svg fill="#000000" xmlns="http://www.w3.org/2000/svg"  viewBox="0 0 50 50" width="50px" height="50px"><path d="M 24 2 C 11.3125 2 3 11.226563 3 21.40625 C 3 26.210938 4.867188 30.003906 6.625 33.4375 C 8.382813 36.871094 10 39.929688 10 43.40625 L 10 48 L 12 48 L 12 43.40625 C 12 39.3125 10.117188 35.9375 8.375 32.53125 C 6.632813 29.125 5 25.695313 5 21.40625 C 5 12.304688 12.265625 4 24 4 C 30.207031 4 34.246094 6.019531 36.9375 9.03125 C 39.628906 12.042969 40.972656 16.140625 41.46875 20.3125 L 41.5 20.5 L 41.59375 20.6875 L 45.78125 28.21875 C 46.15625 28.898438 45.871094 29.699219 45.15625 30 L 42.625 31.0625 L 42 31.34375 L 42 36.875 C 42 40.261719 39.261719 43 35.875 43 L 32 43 L 32 48 L 34 48 L 34 45 L 35.875 45 C 40.34375 45 44 41.34375 44 36.875 L 44 32.65625 L 45.9375 31.84375 C 47.71875 31.09375 48.46875 28.941406 47.53125 27.25 L 43.40625 19.84375 C 42.855469 15.472656 41.421875 11.058594 38.40625 7.6875 C 35.339844 4.257813 30.652344 2 24 2 Z M 24 13 C 18.488281 13 14 17.488281 14 23 C 14 26.714844 16.046875 29.933594 19.0625 31.65625 C 19.570313 32.589844 19.964844 33.515625 20 34.8125 C 19.992188 34.875 19.992188 34.9375 20 35 C 20 35.03125 20 35.0625 20 35.09375 L 20 37 C 20 38.371094 20.953125 39.523438 22.21875 39.875 C 22.542969 40.539063 23.210938 41 24 41 C 24.789063 41 25.457031 40.539063 25.78125 39.875 C 27.046875 39.523438 28 38.371094 28 37 L 28 35.15625 C 28.003906 35.105469 28.003906 35.050781 28 35 C 28 34.96875 28 34.9375 28 34.90625 C 28.019531 33.511719 28.421875 32.574219 28.96875 31.59375 C 31.953125 29.863281 34 26.691406 34 23 C 34 17.488281 29.511719 13 24 13 Z M 24 15 C 28.429688 15 32 18.570313 32 23 C 32 26.089844 30.269531 28.757813 27.71875 30.09375 C 27.550781 30.179688 27.410156 30.308594 27.3125 30.46875 C 26.785156 31.402344 26.339844 32.597656 26.15625 34 L 21.84375 34 C 21.664063 32.613281 21.238281 31.433594 20.71875 30.5 C 20.625 30.328125 20.484375 30.1875 20.3125 30.09375 C 17.75 28.757813 16 26.09375 16 23 C 16 18.570313 19.570313 15 24 15 Z M 21.5 22 C 20.671875 22 20 22.671875 20 23.5 C 20 24.328125 20.671875 25 21.5 25 C 22.019531 25 22.480469 24.742188 22.75 24.34375 C 22.902344 24.519531 23 24.742188 23 25 L 23 32 L 25 32 L 25 25 C 25 24.742188 25.097656 24.519531 25.25 24.34375 C 25.519531 24.742188 25.980469 25 26.5 25 C 27.328125 25 28 24.328125 28 23.5 C 28 22.671875 27.328125 22 26.5 22 L 26 22 C 25.234375 22 24.53125 22.300781 24 22.78125 C 23.46875 22.300781 22.765625 22 22 22 Z M 22 36 L 26 36 L 26 37 C 26 37.566406 25.566406 38 25 38 L 23 38 C 22.433594 38 22 37.566406 22 37 Z"/></svg>