<svg fill="#000000" xmlns="http://www.w3.org/2000/svg"  viewBox="0 0 50 50" width="50px" height="50px"><path d="M 25 2 C 12.309295 2 2 12.309295 2 25 C 2 37.690705 12.309295 48 25 48 C 37.690705 48 48 37.690705 48 25 C 48 12.309295 37.690705 2 25 2 z M 25 4 C 36.609824 4 46 13.390176 46 25 C 46 36.609824 36.609824 46 25 46 C 13.390176 46 4 36.609824 4 25 C 4 13.390176 13.390176 4 25 4 z M 25.017578 14 A 1.0001 1.0001 0 0 0 24.59375 14.085938 L 6.59375 22.085938 A 1.0001 1.0001 0 0 0 6.4179688 23.814453 L 9 25.658203 L 9 31.279297 C 8.4051922 31.626887 8 32.265006 8 33 C 8 34.1 10 37 10 37 C 10 37 12 34.1 12 33 C 12 32.265006 11.594808 31.626887 11 31.279297 L 11 27.087891 L 13 28.515625 L 13 30 C 13 30.509624 13.285805 30.908011 13.558594 31.150391 C 13.831383 31.39277 14.129717 31.551527 14.46875 31.697266 C 15.146816 31.988743 16.003625 32.209466 17.042969 32.398438 C 19.121656 32.776381 21.913303 33 25 33 C 28.086697 33 30.878344 32.776381 32.957031 32.398438 C 33.996375 32.209466 34.853184 31.988743 35.53125 31.697266 C 35.870283 31.551527 36.168617 31.39277 36.441406 31.150391 C 36.714195 30.908011 37 30.509624 37 30 L 37 28.515625 L 43.582031 23.814453 A 1.0001 1.0001 0 0 0 43.40625 22.085938 L 25.40625 14.085938 A 1.0001 1.0001 0 0 0 25.017578 14 z M 25 16.09375 L 40.994141 23.203125 L 37 26.056641 L 37 25 C 37 24.563864 36.788449 24.172146 36.546875 23.914062 C 36.305301 23.655979 36.028288 23.48234 35.71875 23.328125 C 35.099674 23.019696 34.323891 22.796835 33.337891 22.605469 C 31.365889 22.222735 28.571505 22 25 22 C 21.428495 22 18.634111 22.222735 16.662109 22.605469 C 15.676109 22.796835 14.900326 23.019696 14.28125 23.328125 C 13.971712 23.48234 13.694699 23.655979 13.453125 23.914062 C 13.211551 24.172147 13 24.563864 13 25 L 13 26.056641 L 9.0058594 23.203125 L 25 16.09375 z M 25 24 C 28.486495 24 31.193533 24.226093 32.957031 24.568359 C 33.838781 24.739493 34.487513 24.949445 34.828125 25.119141 C 34.941468 25.175611 34.96107 25.197061 35 25.226562 L 35 28.123047 C 34.414702 27.922287 33.756729 27.746962 32.957031 27.601562 C 30.878344 27.223619 28.086697 27 25 27 C 21.913303 27 19.121656 27.223619 17.042969 27.601562 C 16.243271 27.746962 15.585298 27.922287 15 28.123047 L 15 25.226562 C 15.03893 25.197063 15.05853 25.175612 15.171875 25.119141 C 15.512487 24.949445 16.161219 24.739493 17.042969 24.568359 C 18.806467 24.226093 21.513505 24 25 24 z M 25 29 C 27.988435 29 30.697079 29.224399 32.599609 29.570312 C 33.316516 29.70066 33.771838 29.853094 34.212891 30 C 33.771838 30.146906 33.316516 30.29934 32.599609 30.429688 C 30.697079 30.775602 27.988435 31 25 31 C 22.011565 31 19.302921 30.775601 17.400391 30.429688 C 16.683484 30.29934 16.228162 30.146906 15.787109 30 C 16.228162 29.853094 16.683484 29.70066 17.400391 29.570312 C 19.302921 29.224398 22.011565 29 25 29 z"/></svg>