<svg fill="#000000" xmlns="http://www.w3.org/2000/svg"  viewBox="0 0 50 50" width="18px" height="18px"><path d="M 24.964844 2 C 24.683594 2.011719 24.421875 2.136719 24.238281 2.351563 L 18.539063 9 L 8.15625 9 C 8.097656 8.992188 8.042969 8.984375 7.984375 8.984375 C 7.9375 8.988281 7.886719 8.992188 7.839844 9 L 6 9 C 5.640625 8.996094 5.304688 9.183594 5.121094 9.496094 C 4.941406 9.808594 4.941406 10.191406 5.121094 10.503906 C 5.304688 10.816406 5.640625 11.003906 6 11 L 7 11 L 7 13 C 6.996094 13.359375 7.183594 13.695313 7.496094 13.878906 C 7.808594 14.058594 8.191406 14.058594 8.503906 13.878906 C 8.816406 13.695313 9.003906 13.359375 9 13 L 9 11 L 9.695313 11 L 18 16.535156 L 18 22 L 8.15625 22 C 8.097656 21.992188 8.042969 21.984375 7.984375 21.984375 C 7.9375 21.988281 7.886719 21.992188 7.839844 22 L 6 22 C 5.640625 21.996094 5.304688 22.183594 5.121094 22.496094 C 4.941406 22.808594 4.941406 23.191406 5.121094 23.503906 C 5.304688 23.816406 5.640625 24.003906 6 24 L 7 24 L 7 26 C 6.996094 26.359375 7.183594 26.695313 7.496094 26.878906 C 7.808594 27.058594 8.191406 27.058594 8.503906 26.878906 C 8.816406 26.695313 9.003906 26.359375 9 26 L 9 24 L 9.695313 24 L 18 29.535156 L 18 35.675781 L 10.191406 46.410156 C 9.933594 46.765625 9.9375 47.246094 10.199219 47.597656 C 10.464844 47.949219 10.921875 48.089844 11.335938 47.941406 L 25 43.0625 L 38.664063 47.941406 C 39.078125 48.089844 39.535156 47.949219 39.800781 47.597656 C 40.0625 47.246094 40.066406 46.765625 39.808594 46.410156 L 32 35.675781 L 32 29.535156 L 40.300781 24 L 41 24 L 41 26 C 40.996094 26.359375 41.183594 26.695313 41.496094 26.878906 C 41.808594 27.058594 42.191406 27.058594 42.503906 26.878906 C 42.816406 26.695313 43.003906 26.359375 43 26 L 43 24 L 44 24 C 44.359375 24.003906 44.695313 23.816406 44.878906 23.503906 C 45.058594 23.191406 45.058594 22.808594 44.878906 22.496094 C 44.695313 22.183594 44.359375 21.996094 44 22 L 42.15625 22 C 42.097656 21.992188 42.042969 21.984375 41.984375 21.984375 C 41.9375 21.988281 41.886719 21.992188 41.839844 22 L 32 22 L 32 16.535156 L 40.300781 11 L 41 11 L 41 13 C 40.996094 13.359375 41.183594 13.695313 41.496094 13.878906 C 41.808594 14.058594 42.191406 14.058594 42.503906 13.878906 C 42.816406 13.695313 43.003906 13.359375 43 13 L 43 11 L 44 11 C 44.359375 11.003906 44.695313 10.816406 44.878906 10.503906 C 45.058594 10.191406 45.058594 9.808594 44.878906 9.496094 C 44.695313 9.183594 44.359375 8.996094 44 9 L 42.15625 9 C 42.097656 8.992188 42.042969 8.984375 41.984375 8.984375 C 41.9375 8.988281 41.886719 8.992188 41.839844 9 L 31.460938 9 L 25.761719 2.351563 C 25.5625 2.117188 25.269531 1.988281 24.964844 2 Z M 25 4.539063 L 28.828125 9 L 21.171875 9 Z M 13.300781 11 L 18 11 L 18 14.128906 Z M 21.28125 11 L 28.71875 11 L 25 15.027344 Z M 32 11 L 36.699219 11 L 32 14.128906 Z M 20 12.558594 L 23.640625 16.5 L 20 20.441406 Z M 30 12.558594 L 30 20.441406 L 26.359375 16.5 Z M 25 17.972656 L 28.714844 22 L 21.285156 22 Z M 13.300781 24 L 18 24 L 18 27.128906 Z M 21.285156 24 L 28.714844 24 L 25 28.027344 Z M 32 24 L 36.699219 24 L 32 27.128906 Z M 20 25.558594 L 23.640625 29.5 L 20 33.441406 Z M 30 25.558594 L 30 33.441406 L 26.359375 29.5 Z M 25 30.972656 L 29.613281 35.972656 L 25 40.585938 L 20.386719 35.972656 Z M 19.121094 37.535156 L 23.175781 41.589844 L 13.714844 44.96875 Z M 30.878906 37.535156 L 36.285156 44.96875 L 26.824219 41.589844 Z"/></svg>