<svg fill="#000000" xmlns="http://www.w3.org/2000/svg"  viewBox="0 0 50 50" width="18px" height="18px"><path d="M 26 1 C 20.5 1 16 5.5 16 11 C 16 16.163508 19.965618 20.444583 25.001953 20.949219 A 1.0001 1.0001 0 0 0 25 21 L 25 28.373047 C 24.064987 26.92949 22.779834 25.425423 20.787109 24.298828 A 1.0001 1.0001 0 0 0 20.810547 24.072266 C 20.795987 20.953089 18.372394 18.762372 16.236328 17.955078 L 16.234375 17.955078 C 15.274953 17.592569 14.249549 17.464371 13.207031 17.552734 C 10.077495 17.817994 6.7890806 20.025547 4.6386719 23.632812 A 1.0001 1.0001 0 0 0 4.6445312 24.664062 C 7.5576738 29.445892 12.468651 31.718264 16.294922 30.230469 C 17.114558 29.911192 17.947897 29.394376 18.6875 28.697266 A 1.0003137 1.0003137 0 0 0 17.314453 27.242188 C 16.766057 27.759076 16.124724 28.150464 15.568359 28.367188 C 13.106754 29.323014 9.3195314 27.859652 6.7695312 24.138672 C 9.2843455 20.391254 13.057348 18.892056 15.527344 19.826172 A 1.0001 1.0001 0 0 0 15.529297 19.826172 C 16.803858 20.307515 18.374742 21.680467 18.732422 23.386719 C 15.505754 22.291451 12.672535 22.821854 11.777344 23.025391 A 1.0001 1.0001 0 1 0 12.222656 24.974609 C 13.11366 24.772025 16.267543 24.176736 19.537109 25.886719 C 23.632413 28.028155 24.744162 32.071764 24.960938 33 L 16 33 A 1.0001 1.0001 0 0 0 15 34 L 15 38 A 1.0001 1.0001 0 0 0 16 39 L 16.179688 39 C 16.792853 42.064809 17.406152 45.130257 18.019531 48.195312 A 1.0001 1.0001 0 0 0 19 49 L 33 49 A 1.0001 1.0001 0 0 0 33.980469 48.195312 C 34.593848 45.130257 35.207147 42.064809 35.820312 39 L 36 39 A 1.0001 1.0001 0 0 0 37 38 L 37 34 A 1.0001 1.0001 0 0 0 36 33 L 27.052734 33 C 27.361634 32.016811 28.055383 30.300121 29.693359 28.720703 C 31.824007 26.665598 34.241603 26.139005 35.164062 25.986328 A 1.0001 1.0001 0 0 0 35.005859 23.998047 A 1.0001 1.0001 0 0 0 34.835938 24.013672 C 34.235412 24.113065 33.091125 24.358233 31.765625 24.953125 C 32.06117 24.157763 32.630206 23.438952 33.164062 23.060547 C 34.673569 21.990526 37.588559 22.315062 40.095703 24.453125 C 38.923272 27.531865 36.521295 29.215395 34.683594 29.001953 C 34.315795 28.959344 33.866325 28.833333 33.4375 28.625 A 1.0001759 1.0001759 0 1 0 32.5625 30.423828 C 33.191675 30.729495 33.836924 30.916892 34.453125 30.988281 C 37.739377 31.369967 41.023033 28.625456 42.285156 24.423828 A 1.0001 1.0001 0 0 0 42.029297 23.423828 C 39.685766 21.114629 36.739435 20.070804 34.273438 20.5 C 33.451437 20.643065 32.682685 20.949348 32.007812 21.427734 C 30.701161 22.353905 29.474529 24.077072 29.5625 26.167969 A 1.0001 1.0001 0 0 0 29.568359 26.234375 C 29.145238 26.543285 28.721364 26.879277 28.306641 27.279297 C 27.798988 27.768801 27.369865 28.272322 27 28.769531 L 27 21 A 1.0001 1.0001 0 0 0 26.998047 20.949219 C 32.034382 20.444583 36 16.163508 36 11 C 36 5.5 31.5 1 26 1 z M 26 3 C 30.4 3 34 6.6 34 11 C 34 15.4 30.4 19 26 19 C 21.6 19 18 15.4 18 11 C 18 6.6 21.6 3 26 3 z M 25.699219 4.4003906 L 25.699219 5.9003906 C 24.799219 5.9003906 22.900391 6.5992188 22.900391 8.6992188 C 22.900391 12.199219 27.400391 11.3 27.400391 13.5 C 27.400391 13.7 27.399609 14.699219 26.099609 14.699219 C 24.599609 14.699219 24.599609 13.3 24.599609 13 L 22.599609 13 C 22.599609 16 25.199609 16.300781 25.599609 16.300781 L 25.599609 17.699219 L 26.699219 17.699219 L 26.699219 16.300781 C 27.099219 16.300781 29.5 16 29.5 13.5 C 29.5 10 25 10.799219 25 8.6992188 C 25 8.4992188 24.999609 7.5003906 26.099609 7.4003906 C 27.299609 7.4003906 27.400391 8.4996094 27.400391 9.0996094 L 29.400391 9.0996094 C 29.400391 6.4996094 27.500781 6.0003906 26.800781 5.9003906 L 26.800781 4.4003906 L 25.699219 4.4003906 z M 17 35 L 35 35 L 35 37 L 17 37 L 17 35 z M 18.21875 39 L 33.78125 39 C 33.247771 41.666806 32.713158 44.333533 32.179688 47 L 19.820312 47 C 19.286841 44.333533 18.752229 41.666806 18.21875 39 z"/></svg>