<svg fill="#000000" xmlns="http://www.w3.org/2000/svg"  viewBox="0 0 50 50" width="18px" height="18px"><path d="M 22.71875 0.3125 L 21.28125 1.6875 L 24.375 5 L 13.59375 5 C 8.855469 5 5 8.855469 5 13.59375 L 5 17.40625 L 7 17.40625 L 7 13.59375 C 7 9.933594 9.933594 7 13.59375 7 L 24.375 7 L 21.28125 10.3125 L 22.71875 11.6875 L 27.4375 6.6875 L 28.0625 6 L 27.4375 5.3125 Z M 32.59375 5 L 32.59375 7 L 36.40625 7 C 40.066406 7 43 9.933594 43 13.59375 L 43 24.375 L 39.6875 21.28125 L 38.3125 22.71875 L 43.3125 27.4375 L 44 28.0625 L 44.6875 27.4375 L 49.6875 22.71875 L 48.3125 21.28125 L 45 24.375 L 45 13.59375 C 45 8.855469 41.144531 5 36.40625 5 Z M 6 21.9375 L 5.3125 22.5625 L 0.3125 27.28125 L 1.6875 28.71875 L 5 25.625 L 5 36.40625 C 5 41.144531 8.855469 45 13.59375 45 L 17.40625 45 L 17.40625 43 L 13.59375 43 C 9.933594 43 7 40.066406 7 36.40625 L 7 25.625 L 10.3125 28.71875 L 11.6875 27.28125 L 6.6875 22.5625 Z M 43 32.59375 L 43 36.40625 C 43 40.066406 40.066406 43 36.40625 43 L 25.625 43 L 28.71875 39.6875 L 27.28125 38.3125 L 22.5625 43.3125 L 21.9375 44 L 22.5625 44.6875 L 27.28125 49.6875 L 28.71875 48.3125 L 25.625 45 L 36.40625 45 C 41.144531 45 45 41.144531 45 36.40625 L 45 32.59375 Z"/></svg>