<svg fill="#000000" xmlns="http://www.w3.org/2000/svg"  viewBox="0 0 50 50" width="50px" height="50px"><path d="M 19.5 3 C 14.817424 3 11 6.8174243 11 11.5 C 11 12.439608 11.159798 13.341415 11.443359 14.1875 C 9.9828153 14.356103 7.7249519 14.917626 5.9238281 16.71875 C 3.0160353 19.626543 3 23.978516 3 23.978516 A 1.0001 1.0001 0 0 0 4.0214844 25 C 4.0214844 25 8.3734572 24.98397 11.28125 22.076172 C 12.685473 20.671948 13.329664 18.995074 13.628906 17.628906 C 15.157069 19.093429 17.224182 20 19.5 20 C 24.182576 20 28 16.182576 28 11.5 C 28 6.8174243 24.182576 3 19.5 3 z M 19.5 5 C 23.101696 5 26 7.8983045 26 11.5 C 26 15.101696 23.101696 18 19.5 18 C 15.898304 18 13 15.101696 13 11.5 C 13 7.8983045 15.898304 5 19.5 5 z M 36 10 C 32.145851 10 29 13.145851 29 17 C 29 20.854149 32.145851 24 36 24 C 39.854149 24 43 20.854149 43 17 C 43 13.145851 39.854149 10 36 10 z M 36 12 C 38.773268 12 41 14.226732 41 17 C 41 19.773268 38.773268 22 36 22 C 33.226732 22 31 19.773268 31 17 C 31 14.226732 33.226732 12 36 12 z M 11.775391 16.224609 C 11.708071 17.287938 11.457291 19.072006 9.8671875 20.662109 C 8.3158308 22.213466 6.4127777 22.623906 5.2011719 22.798828 C 5.3760944 21.587222 5.786534 19.684169 7.3378906 18.132812 C 8.9279945 16.54271 10.712062 16.29193 11.775391 16.224609 z M 18 22 C 11.935 22 7 26.935 7 33 L 7 44 L 9 44 L 9 33 C 9 28.038 13.037 24 18 24 L 22 24 C 24.375 24 26.607672 24.965266 28.263672 26.572266 C 28.817672 26.161266 29.395859 25.787703 30.005859 25.470703 C 27.955859 23.300703 25.067 22 22 22 L 18 22 z M 36 26 C 31.671 26 27.930719 28.518109 26.136719 32.162109 C 26.453719 32.296109 26.744 32.428734 27 32.552734 C 27.441 32.339734 27.993234 32.105141 28.615234 31.869141 C 30.242234 29.534141 32.944 28 36 28 C 40.963 28 45 32.038 45 37 L 45 44 L 47 44 L 47 37 C 47 30.935 42.065 26 36 26 z M 14 32 A 1.0001 1.0001 0 0 0 13 33 L 13 47 L 15 47 L 15 34.080078 C 18.799889 34.192323 21.700912 34.793222 23.542969 35.443359 C 24.961123 35.943885 25.628133 36.320952 26 36.554688 L 26 47 L 28 47 L 28 36.554688 C 28.371867 36.320952 29.038877 35.943885 30.457031 35.443359 C 32.299088 34.793222 35.200111 34.192323 39 34.080078 L 39 47 L 41 47 L 41 33 A 1.0001 1.0001 0 0 0 40 32 C 35.388889 32 32.022423 32.769774 29.792969 33.556641 C 27.957733 34.204371 27.336014 34.682791 27 34.908203 C 26.663986 34.682791 26.042267 34.204371 24.207031 33.556641 C 21.977577 32.769774 18.611111 32 14 32 z"/></svg>