<svg fill="#000000" xmlns="http://www.w3.org/2000/svg"  viewBox="0 0 50 50" width="18px" height="18px"><path d="M 26.140625 2.0058594 C 25.874434 1.9937858 25.605083 2.0001442 25.333984 2.0253906 L 25.330078 2.0273438 L 25.326172 2.0273438 C 23.609712 2.2028806 22.082151 2.9813695 20.984375 4.2402344 A 1.0001 1.0001 0 0 0 20.841797 4.2246094 A 1.0001 1.0001 0 0 0 20.574219 4.2519531 C 16.963684 5.0645944 13.701863 6.8189757 10.945312 9.2421875 C 10.699104 9.1020824 10.444686 9.0448065 10.226562 9.0195312 C 9.880258 8.9794028 9.55608 9.0042181 9.2304688 9.0527344 C 8.5856692 9.1488098 7.9555728 9.344771 7.4453125 9.5703125 C 7.1471628 9.690716 6.8501383 9.8410328 6.5722656 10.097656 C 6.3103699 10.339525 6.0902543 10.75504 6.0527344 11.220703 C 5.9972174 11.661462 6.0924154 11.936372 6.2011719 12.1875 C 6.3239957 12.471111 6.4837766 12.755183 6.6757812 13.066406 C 6.7944751 13.258799 6.9437395 13.472403 7.0839844 13.679688 C 4.6284023 17.198441 3.1065187 21.39662 3.0097656 25.96875 C 3.0097029 25.97075 3.0098277 25.972609 3.0097656 25.974609 C 3.0097381 25.975909 3.0097929 25.977216 3.0097656 25.978516 C 2.7447072 34.522526 8.2657678 41.741855 15.552734 45.431641 A 1.0001 1.0001 0 0 0 16.029297 45.666016 C 19.054638 47.11722 22.397982 47.950607 25.822266 47.966797 L 25.876953 47.976562 A 1.0001 1.0001 0 0 0 26.039062 47.988281 C 29.886639 47.962151 33.58957 46.978557 36.800781 45.40625 A 1.0001 1.0001 0 0 0 36.808594 45.402344 C 37.793523 44.908982 38.293448 43.643219 37.828125 42.558594 A 1.0001 1.0001 0 0 0 37.802734 42.501953 L 37.740234 42.376953 C 37.011509 40.355246 35.032358 36.202212 35.011719 31.505859 C 35.004319 29.647088 35.279084 27.740479 35.90625 25.927734 L 35.908203 25.925781 C 35.908631 25.924581 35.907774 25.923075 35.908203 25.921875 C 36.801529 23.409904 39.484863 20.266433 41.652344 18.007812 L 41.65625 18.003906 C 41.68949 17.974271 42.203585 17.503618 42.853516 16.888672 C 44.288147 19.753495 45.083033 22.997655 45.001953 26.494141 C 44.825546 30.963037 43.341378 35.059917 40.814453 38.371094 A 1.0001 1.0001 0 1 0 42.404297 39.583984 C 45.186179 35.938723 46.811207 31.433049 47.001953 26.566406 A 1.0001 1.0001 0 0 0 47.001953 26.550781 C 47.097053 22.533577 46.138487 18.787565 44.414062 15.53125 A 1.0001 1.0001 0 0 0 44.349609 15.425781 C 44.995187 14.765147 45.633163 14.076122 46.125 13.4375 C 46.378805 13.10795 46.595078 12.795466 46.761719 12.46875 C 46.913173 12.171809 47.040267 11.818303 46.960938 11.320312 C 46.921548 10.876831 46.751731 10.439792 46.474609 10.144531 C 46.168474 9.8183668 45.801331 9.6033736 45.396484 9.4296875 C 44.991408 9.2559026 44.550812 9.0903542 44.080078 9.0136719 C 43.609345 8.9369899 43.10756 8.9491729 42.580078 9.125 A 1.0001 1.0001 0 0 0 42.447266 9.1796875 C 42.1731 9.3175194 42.196383 9.3441142 42.119141 9.4101562 C 42.041901 9.4761982 41.960514 9.5502057 41.869141 9.6347656 C 41.686393 9.8038855 41.47086 10.011478 41.261719 10.214844 C 41.085067 10.386617 41.059704 10.414614 40.919922 10.552734 C 38.291111 7.7073545 34.970947 5.6363785 31.138672 4.5410156 A 1.0001 1.0001 0 0 0 30.947266 4.5019531 C 29.679184 3.0408784 27.980161 2.0892945 26.140625 2.0058594 z M 26.058594 4.0058594 C 27.295651 4.0602616 28.476832 4.7004146 29.455078 5.8378906 C 29.850589 6.3613548 30.612108 7.7890005 30.810547 8.6289062 L 30.8125 8.6386719 L 30.814453 8.6464844 C 30.900453 8.9824844 30.955078 9.2067423 30.955078 9.4902344 L 30.955078 9.5527344 L 30.962891 9.6132812 C 31.184137 11.414123 30.585953 13.155234 29.570312 14.371094 C 28.672038 15.312468 27.605805 15.907279 26.568359 15.970703 L 26.539062 15.972656 L 26.507812 15.974609 C 25.456315 16.102978 24.239303 15.70255 23.314453 14.9375 L 23.3125 14.935547 L 23.310547 14.933594 C 21.967642 13.839117 21.087843 12.257624 21.013672 10.460938 C 21.013672 10.460938 21.013672 10.458984 21.013672 10.458984 C 20.938182 8.0246798 21.833849 6.3614295 22.257812 5.828125 L 22.267578 5.8164062 L 22.275391 5.8066406 C 23.055589 4.7655508 24.141974 4.1621041 25.525391 4.0195312 C 25.703963 4.0031803 25.881871 3.9980876 26.058594 4.0058594 z M 19.621094 6.5761719 C 19.238357 7.6135436 18.964484 8.9327996 19.015625 10.53125 L 19.015625 10.535156 L 19.015625 10.539062 C 19.113975 12.940584 20.297491 15.055362 22.044922 16.480469 C 22.044922 16.480469 22.046875 16.482422 22.046875 16.482422 C 23.347603 17.556192 25.036374 18.153577 26.722656 17.957031 C 28.409569 17.843174 29.899951 16.941577 31.050781 15.722656 L 31.070312 15.701172 L 31.087891 15.679688 C 32.458385 14.052865 33.220532 11.792051 32.945312 9.421875 C 32.934396 8.9090147 32.835274 8.4798805 32.753906 8.1621094 C 32.669164 7.8056212 32.548286 7.4455501 32.410156 7.0917969 C 35.143196 8.1662933 37.522045 9.8085754 39.486328 11.947266 C 39.253172 12.153889 39.046742 12.343023 38.736328 12.599609 C 37.769628 13.39868 36.462959 14.397213 35.009766 15.365234 C 32.103379 17.301278 28.538888 19.056641 26.195312 19.056641 C 23.594584 19.056641 20.87651 18.14298 17.982422 16.126953 L 17.980469 16.125 C 16.87211 15.344891 15.258598 13.79439 13.925781 12.40625 C 13.317888 11.773124 12.777049 11.181655 12.330078 10.685547 C 14.475877 8.8138746 16.931029 7.4008195 19.621094 6.5761719 z M 9.953125 11.007812 C 10.296538 11.423409 11.18961 12.44454 12.482422 13.791016 C 13.853187 15.218679 15.468484 16.804445 16.832031 17.763672 A 1.0001 1.0001 0 0 0 16.835938 17.765625 C 19.982951 19.95843 23.120761 21.056641 26.195312 21.056641 C 29.435738 21.056641 33.077777 19.055253 36.119141 17.029297 C 37.639823 16.016319 38.994075 14.983758 40.011719 14.142578 C 40.52054 13.721988 40.943139 13.349392 41.267578 13.046875 C 41.529113 12.803011 41.696032 12.643667 41.865234 12.427734 L 41.871094 12.421875 C 41.876785 12.416192 42.253809 12.039763 42.65625 11.648438 C 42.858983 11.451303 43.066092 11.252021 43.226562 11.103516 C 43.257292 11.075076 43.274151 11.061229 43.300781 11.037109 C 43.435297 11.032409 44.16532 11.077909 44.607422 11.267578 C 44.825584 11.361173 44.947768 11.452373 44.996094 11.498047 C 44.994411 11.516523 45.001827 11.518676 44.980469 11.560547 C 44.906979 11.704635 44.750242 11.945128 44.541016 12.216797 C 44.122562 12.760134 43.497834 13.440883 42.861328 14.089844 C 41.588316 15.387764 40.269531 16.564453 40.269531 16.564453 A 1.0001 1.0001 0 0 0 40.212891 16.619141 C 37.988372 18.936812 35.143405 22.097887 34.021484 25.259766 A 1.0001 1.0001 0 0 0 34.019531 25.267578 C 33.308346 27.320461 33.003305 29.451003 33.011719 31.515625 C 33.034949 36.802295 35.27844 41.430907 35.876953 43.105469 A 1.0001 1.0001 0 0 0 35.923828 43.21875 L 35.990234 43.347656 C 36.071984 43.539928 36.024753 43.556018 35.914062 43.611328 C 35.914062 43.611328 35.914062 43.613281 35.914062 43.613281 C 32.969592 45.053666 29.569369 45.950088 26.076172 45.982422 A 1.0001 1.0001 0 0 0 26.074219 45.982422 A 1.0001 1.0001 0 0 0 25.923828 45.970703 C 22.881002 45.970703 19.902393 45.208391 17.167969 43.939453 C 17.097089 43.245363 17.011719 42.300213 17.011719 41.478516 A 1.0001 1.0001 0 0 0 17.009766 41.445312 C 16.831248 36.087837 17.782464 32.58398 18.427734 30.003906 A 1.0001 1.0001 0 0 0 18.429688 29.994141 C 18.705938 28.842847 18.926073 27.895099 18.992188 27.009766 C 19.058257 26.125095 18.946248 25.259406 18.503906 24.5 C 17.256815 22.320375 14.557981 19.638109 12.388672 17.197266 A 1.0001 1.0001 0 0 0 12.380859 17.1875 C 11.970822 16.73661 10.755254 15.293383 9.7109375 13.914062 C 9.1887793 13.224403 8.7029279 12.542789 8.3789062 12.017578 C 8.2401513 11.792668 8.1513245 11.62014 8.0859375 11.482422 C 8.1314125 11.456992 8.1387825 11.444459 8.2050781 11.417969 A 1.0001 1.0001 0 0 0 8.2402344 11.402344 C 8.5513916 11.263758 9.1011131 11.094468 9.5253906 11.03125 C 9.7173785 11.00264 9.867671 11.002122 9.953125 11.007812 z M 8.34375 15.410156 C 9.3644557 16.738852 10.430405 18.016526 10.900391 18.533203 C 13.122383 21.032815 15.820584 23.834188 16.771484 25.498047 A 1.0001 1.0001 0 0 0 16.775391 25.503906 C 16.973223 25.843092 17.046432 26.213412 16.998047 26.861328 C 16.949667 27.509245 16.757125 28.390637 16.484375 29.527344 C 15.848291 32.070132 14.829591 35.884646 15.013672 41.494141 C 15.014056 41.936284 15.040851 42.415045 15.066406 42.880859 C 9.0693698 39.315636 4.7834746 33.143109 5.0078125 26.03125 A 1.0001 1.0001 0 0 0 5.0078125 26.021484 C 5.0888559 22.108275 6.3236143 18.510729 8.34375 15.410156 z"/></svg>