<svg fill="#000000" xmlns="http://www.w3.org/2000/svg"  viewBox="0 0 50 50" width="18px" height="18px"><path d="M 0 8 L 0 10 L 3 10 L 3 13 L 0 13 L 0 15 L 50 15 L 50 13 L 47 13 L 47 10 L 50 10 L 50 8 Z M 5 10 L 10 10 L 10 13 L 5 13 Z M 12 10 L 17 10 L 17 13 L 12 13 Z M 19 10 L 24 10 L 24 13 L 19 13 Z M 26 10 L 31 10 L 31 13 L 26 13 Z M 33 10 L 38 10 L 38 13 L 33 13 Z M 40 10 L 45 10 L 45 13 L 40 13 Z M 0 17 L 0 19 L 1 19 C 2.65625 19 4 20.34375 4 22 L 4 35.84375 C 3.710938 35.871094 3.425781 35.90625 3.1875 35.90625 C 2.582031 35.90625 2.039063 35.8125 1.40625 35.8125 C 1.046875 35.808594 0.710938 35.996094 0.527344 36.308594 C 0.347656 36.621094 0.347656 37.003906 0.527344 37.316406 C 0.710938 37.628906 1.046875 37.816406 1.40625 37.8125 C 1.773438 37.8125 2.390625 37.90625 3.1875 37.90625 C 4.691406 37.90625 6.875 37.457031 8.6875 36.28125 C 10.503906 37.472656 12.675781 37.90625 14.1875 37.90625 C 15.691406 37.90625 17.875 37.457031 19.6875 36.28125 C 21.503906 37.472656 23.675781 37.90625 25.1875 37.90625 C 26.691406 37.90625 28.875 37.457031 30.6875 36.28125 C 32.503906 37.472656 34.675781 37.90625 36.1875 37.90625 C 37.691406 37.90625 39.875 37.457031 41.6875 36.28125 C 43.503906 37.472656 45.675781 37.90625 47.1875 37.90625 C 47.984375 37.90625 48.726563 37.789063 49.375 37.53125 C 49.894531 37.324219 50.144531 36.738281 49.9375 36.21875 C 49.730469 35.699219 49.144531 35.449219 48.625 35.65625 C 48.273438 35.796875 47.792969 35.90625 47.1875 35.90625 C 46.839844 35.90625 46.4375 35.875 46 35.8125 L 46 22 C 46 20.34375 47.34375 19 49 19 L 50 19 L 50 17 L 49 17 C 46.253906 17 44 19.253906 44 22 L 44 35.34375 C 43.382813 35.121094 42.808594 34.8125 42.34375 34.4375 C 41.972656 34.128906 41.433594 34.128906 41.0625 34.4375 C 40.5 34.894531 39.765625 35.234375 39 35.46875 L 39 22 C 39 19.253906 36.746094 17 34 17 L 16 17 C 13.253906 17 11 19.253906 11 22 L 11 35.34375 C 10.382813 35.121094 9.808594 34.8125 9.34375 34.4375 C 9.164063 34.277344 8.929688 34.1875 8.6875 34.1875 C 8.457031 34.195313 8.234375 34.285156 8.0625 34.4375 C 7.5 34.894531 6.765625 35.234375 6 35.46875 L 6 22 C 6 19.253906 3.746094 17 1 17 Z M 16 19 L 34 19 C 35.65625 19 37 20.34375 37 22 L 37 35.84375 C 36.710938 35.871094 36.425781 35.90625 36.1875 35.90625 C 34.867188 35.90625 32.640625 35.492188 31.34375 34.4375 C 30.972656 34.128906 30.433594 34.128906 30.0625 34.4375 C 28.765625 35.492188 26.507813 35.90625 25.1875 35.90625 C 23.867188 35.90625 21.640625 35.492188 20.34375 34.4375 C 19.972656 34.128906 19.433594 34.128906 19.0625 34.4375 C 17.765625 35.492188 15.507813 35.90625 14.1875 35.90625 C 13.839844 35.90625 13.4375 35.875 13 35.8125 L 13 22 C 13 20.34375 14.34375 19 16 19 Z M 8.59375 38.1875 C 8.394531 38.214844 8.210938 38.304688 8.0625 38.4375 C 6.765625 39.492188 4.507813 39.90625 3.1875 39.90625 C 2.582031 39.90625 2.039063 39.8125 1.40625 39.8125 C 1.046875 39.808594 0.710938 39.996094 0.527344 40.308594 C 0.347656 40.621094 0.347656 41.003906 0.527344 41.316406 C 0.710938 41.628906 1.046875 41.816406 1.40625 41.8125 C 1.773438 41.8125 2.390625 41.90625 3.1875 41.90625 C 4.691406 41.90625 6.875 41.457031 8.6875 40.28125 C 10.503906 41.472656 12.675781 41.90625 14.1875 41.90625 C 15.691406 41.90625 17.875 41.457031 19.6875 40.28125 C 21.503906 41.472656 23.675781 41.90625 25.1875 41.90625 C 26.691406 41.90625 28.875 41.457031 30.6875 40.28125 C 32.503906 41.472656 34.675781 41.90625 36.1875 41.90625 C 37.691406 41.90625 39.875 41.457031 41.6875 40.28125 C 43.503906 41.472656 45.675781 41.90625 47.1875 41.90625 C 47.984375 41.90625 48.726563 41.789063 49.375 41.53125 C 49.894531 41.324219 50.144531 40.738281 49.9375 40.21875 C 49.730469 39.699219 49.144531 39.449219 48.625 39.65625 C 48.273438 39.796875 47.792969 39.90625 47.1875 39.90625 C 45.867188 39.90625 43.640625 39.492188 42.34375 38.4375 C 41.972656 38.128906 41.433594 38.128906 41.0625 38.4375 C 39.765625 39.492188 37.507813 39.90625 36.1875 39.90625 C 34.867188 39.90625 32.640625 39.492188 31.34375 38.4375 C 30.972656 38.128906 30.433594 38.128906 30.0625 38.4375 C 28.765625 39.492188 26.507813 39.90625 25.1875 39.90625 C 23.867188 39.90625 21.640625 39.492188 20.34375 38.4375 C 19.972656 38.128906 19.433594 38.128906 19.0625 38.4375 C 17.765625 39.492188 15.507813 39.90625 14.1875 39.90625 C 12.867188 39.90625 10.640625 39.492188 9.34375 38.4375 C 9.164063 38.277344 8.929688 38.1875 8.6875 38.1875 C 8.65625 38.1875 8.625 38.1875 8.59375 38.1875 Z"/></svg>