<svg fill="#000000" xmlns="http://www.w3.org/2000/svg"  viewBox="0 0 50 50" width="18px" height="18px"><path d="M 25 5 C 13.966513 5 5 13.966513 5 25 A 1.0001 1.0001 0 1 0 7 25 C 7 15.047487 15.047487 7 25 7 C 31.245219 7 36.728098 10.179957 39.957031 15 L 34 15 A 1.0001 1.0001 0 1 0 34 17 L 41.761719 17 L 43 17 L 43 8 A 1.0001 1.0001 0 0 0 41.984375 6.9863281 A 1.0001 1.0001 0 0 0 41 8 L 41 13.009766 C 37.34915 8.1484512 31.538723 5 25 5 z M 24 14 L 24 16.085938 C 22.289927 16.358488 21.175796 17.299133 20.632812 18.246094 C 19.989714 19.367658 20 20.488281 20 20.488281 C 20 22.028623 20.807407 23.223794 21.824219 23.951172 C 22.84103 24.67855 24.037091 25.081489 25.154297 25.492188 C 26.271503 25.902884 27.304367 26.3192 27.972656 26.847656 C 28.640945 27.376112 29 27.910326 29 29 C 29 29 28.9935 29.724785 28.527344 30.470703 C 28.061145 31.216621 27.233333 32 25 32 C 22.833333 32 22.025274 31.06422 21.519531 30.052734 C 21.013788 29.041248 21 28 21 28 L 19 28 C 19 28 18.98621 29.458752 19.730469 30.947266 C 20.382589 32.251506 21.76244 33.612363 24 33.929688 L 24 36 L 26 36 L 26 33.943359 C 28.175871 33.690317 29.538333 32.624214 30.222656 31.529297 C 31.006457 30.275215 31 29 31 29 C 31 27.360674 30.234055 26.085247 29.214844 25.279297 C 28.195633 24.473346 26.978497 24.031662 25.845703 23.615234 C 24.712909 23.198807 23.65897 22.803997 22.988281 22.324219 C 22.317593 21.844441 22 21.42244 22 20.488281 C 22 20.488281 22.01029 19.864622 22.367188 19.242188 C 22.724089 18.619751 23.290667 18 25 18 C 26.666667 18 27.224726 18.68578 27.605469 19.447266 C 27.986212 20.208752 28 21 28 21 L 30 21 C 30 21 30.01379 19.791248 29.394531 18.552734 C 28.869824 17.503319 27.747793 16.40829 26 16.095703 L 26 14 L 24 14 z M 43.984375 23.986328 A 1.0001 1.0001 0 0 0 43 25 C 43 34.952513 34.952513 43 25 43 C 18.754258 43 13.271088 39.819768 10.042969 35 L 16 35.001953 A 1.0001 1.0001 0 1 0 16 33.001953 L 8.4453125 33 A 1.0001 1.0001 0 0 0 8.0585938 33 L 7 33 L 7 42 A 1.0001 1.0001 0 1 0 9 42 L 9 36.986328 C 12.649688 41.849109 18.459565 45 25 45 C 36.033487 45 45 36.033487 45 25 A 1.0001 1.0001 0 0 0 43.984375 23.986328 z"/></svg>