<svg fill="#000000" xmlns="http://www.w3.org/2000/svg"  viewBox="0 0 50 50" width="18px" height="18px"><path d="M 25 0 L 25 4.5 C 29 4.5 27.300781 6 31 6 L 33 6 L 33 2 L 31 2 C 27.300781 2 29 0 25 0 Z M 25 7 C 18.195313 7 12.585938 12.320313 12.0625 19 L 12 19 C 11.96875 19 11.9375 19 11.90625 19 C 11.875 19 11.84375 19 11.8125 19 C 11.261719 19.050781 10.855469 19.542969 10.90625 20.09375 C 10.957031 20.644531 11.449219 21.050781 12 21 L 12 26 L 14 26 L 14 21 L 16 21 L 16 26 L 18 26 L 18 21 L 20 21 L 20 26 L 22 26 L 22 21 L 24 21 L 24 26 L 26 26 L 26 21 L 28 21 L 28 26 L 30 26 L 30 21 L 32 21 L 32 26 L 34 26 L 34 21 L 36 21 L 36 26 L 38 26 L 38 21 C 38.359375 21.003906 38.695313 20.816406 38.878906 20.503906 C 39.058594 20.191406 39.058594 19.808594 38.878906 19.496094 C 38.695313 19.183594 38.359375 18.996094 38 19 L 37.9375 19 C 37.414063 12.320313 31.804688 7 25 7 Z M 25 9 C 30.699219 9 35.25 13.433594 35.78125 19 L 14.21875 19 C 14.75 13.433594 19.300781 9 25 9 Z M 0 27 L 0 50 L 50 50 L 50 27 Z M 2 29 L 48 29 L 48 48 L 2 48 Z M 5 32 L 5 35 L 9 35 L 9 32 Z M 12 32 L 12 35 L 16 35 L 16 32 Z M 19 32 L 19 35 L 23 35 L 23 32 Z M 26 32 L 26 35 L 30 35 L 30 32 Z M 33 32 L 33 35 L 37 35 L 37 32 Z M 40 32 L 40 35 L 44 35 L 44 32 Z M 5 37 L 5 40 L 9 40 L 9 37 Z M 12 37 L 12 40 L 16 40 L 16 37 Z M 19 37 L 19 40 L 23 40 L 23 37 Z M 26 37 L 26 40 L 30 40 L 30 37 Z M 33 37 L 33 40 L 37 40 L 37 37 Z M 40 37 L 40 40 L 44 40 L 44 37 Z M 5 42 L 5 45 L 9 45 L 9 42 Z M 12 42 L 12 45 L 16 45 L 16 42 Z M 19 42 L 19 45 L 23 45 L 23 42 Z M 26 42 L 26 45 L 30 45 L 30 42 Z M 33 42 L 33 45 L 37 45 L 37 42 Z M 40 42 L 40 45 L 44 45 L 44 42 Z"/></svg>