<svg width="18" height="18" viewBox="0 0 24 24" fill="none" xmlns="http://www.w3.org/2000/svg">
<path d="M15.9488 4.00501C15.8569 4.00314 15.7669 4.02751 15.6882 4.07626L13.8469 5.17876C13.6369 5.25564 13.4044 5.25751 13.1944 5.17314C13.1944 5.17126 13.1944 5.17126 13.1944 5.17126L13.1025 5.13376C11.9138 4.65189 10.5525 4.84126 9.54003 5.63251L9.15753 5.93064C9.11628 5.93626 9.07503 5.94751 9.03565 5.96251C6.84753 6.83814 5.15253 5.74876 5.15253 5.74876C5.00815 5.65689 4.82628 5.64939 4.67253 5.73001C4.52065 5.80876 4.42315 5.96439 4.41565 6.13501C4.41003 6.30751 4.4944 6.46876 4.63878 6.56064C4.63878 6.56064 5.81628 7.27876 7.47753 7.24126L6.39003 8.08876C5.58378 8.72064 5.43753 9.90001 6.06753 10.7081C6.69753 11.5144 7.8769 11.6588 8.68503 11.0288L10.9632 9.25126C11.1169 9.33751 11.3044 9.43876 11.7263 9.59814L12.6788 10.7925L16.5319 15.6263C16.5319 15.6263 16.5338 15.6281 16.5357 15.63C16.8169 15.9713 16.7419 16.4606 16.3725 16.7063C16.0575 16.9144 15.645 16.8525 15.405 16.5581L15.1838 16.2919C15.1838 16.29 15.1838 16.29 15.1838 16.29L15.0769 16.1588C15.075 16.1588 15.075 16.1588 15.075 16.1569C15.0657 16.1456 15.0544 16.1344 15.0432 16.1213C15.0207 16.0988 14.9963 16.08 14.97 16.0613C14.9569 16.0519 14.9438 16.0444 14.9288 16.035C14.9157 16.0275 14.9007 16.0219 14.8875 16.0144C14.8857 16.0144 14.8857 16.0144 14.8857 16.0144C14.8107 15.9844 14.73 15.9731 14.6513 15.9806C14.6344 15.9825 14.6194 15.9844 14.6025 15.9863C14.5557 15.9975 14.5107 16.0144 14.4675 16.0369C14.4544 16.0444 14.4413 16.0538 14.4282 16.0613C14.415 16.0706 14.4019 16.08 14.3888 16.0913C14.3775 16.1025 14.3663 16.1119 14.355 16.1231C14.2407 16.2413 14.1957 16.41 14.2332 16.5675C14.2369 16.5844 14.2407 16.5994 14.2463 16.6144C14.2575 16.6444 14.2707 16.6744 14.2857 16.7006C14.295 16.7156 14.3025 16.7288 14.3119 16.74C14.3119 16.7419 14.3119 16.7419 14.3119 16.7419C14.3194 16.7513 14.3269 16.7588 14.3325 16.7681L14.4413 16.8994C14.7225 17.2406 14.6475 17.7319 14.2782 17.9738C13.9632 18.1819 13.5507 18.12 13.3107 17.8275L13.0932 17.5613H13.0913L12.9825 17.4281C12.9732 17.415 12.9619 17.4038 12.9507 17.3925C12.9188 17.3588 12.8794 17.3288 12.8363 17.3063C12.8232 17.2988 12.8082 17.2913 12.7932 17.2856C12.765 17.2725 12.7332 17.2631 12.7013 17.2575C12.6713 17.2519 12.6413 17.2481 12.6094 17.2481C12.6075 17.2481 12.6075 17.2481 12.6057 17.2481C12.5419 17.2481 12.4782 17.2613 12.42 17.2856C12.3619 17.3119 12.3075 17.3494 12.2625 17.3944C12.2532 17.4056 12.2419 17.4188 12.2307 17.43C12.2213 17.4431 12.2119 17.4563 12.2025 17.4694C12.195 17.4844 12.1875 17.4975 12.18 17.5106C12.18 17.5125 12.18 17.5125 12.18 17.5125C12.1725 17.5256 12.1669 17.5406 12.1594 17.5538C12.1594 17.5556 12.1594 17.5556 12.1594 17.5556C12.1538 17.5706 12.15 17.5856 12.1444 17.6006C12.1407 17.6175 12.1369 17.6325 12.135 17.6475C12.1332 17.6644 12.1313 17.6794 12.1294 17.6963C12.1275 17.7113 12.1275 17.7281 12.1275 17.7431C12.1275 17.745 12.1275 17.7469 12.1275 17.7488C12.1313 17.79 12.1388 17.8313 12.15 17.8706C12.1519 17.8744 12.1538 17.88 12.1538 17.8838C12.1538 17.8838 12.1538 17.8838 12.1538 17.8856C12.1594 17.8988 12.165 17.9138 12.1725 17.9288C12.1763 17.9363 12.18 17.9438 12.1838 17.9513C12.1875 17.9588 12.1913 17.9644 12.1932 17.9719C12.195 17.9719 12.195 17.9719 12.195 17.9719C12.2025 17.985 12.2119 17.9981 12.2194 18.0113C12.2213 18.0113 12.2213 18.0113 12.2213 18.0131C12.2288 18.0206 12.2344 18.03 12.2419 18.0375C12.2419 18.0375 12.2419 18.0375 12.2419 18.0394L12.3019 18.1125L12.3507 18.1706C12.63 18.51 12.5569 18.9994 12.1913 19.245C11.8744 19.4531 11.46 19.3913 11.22 19.0988L11.0025 18.8363C11.0025 18.8344 11.0025 18.8344 11.0025 18.8344L10.8919 18.6994C10.8882 18.6938 10.8844 18.69 10.8807 18.6863L10.8282 18.6244C10.7213 18.4856 10.5488 18.4163 10.3763 18.4444C10.2019 18.4706 10.0575 18.5888 9.9994 18.7538C9.9394 18.9188 9.97315 19.1025 10.0875 19.2338L10.1494 19.3088L10.2619 19.4456C10.5375 19.7831 10.4682 20.265 10.11 20.5125C9.79315 20.7281 9.37503 20.67 9.13128 20.3738L8.22378 19.2713L8.38878 19.1363C9.03378 18.6056 9.12753 17.6419 8.59878 16.9988C8.34378 16.6875 7.98565 16.5113 7.61253 16.4644C7.63878 16.0894 7.53565 15.7031 7.28065 15.3938C7.02565 15.0825 6.66753 14.9063 6.2944 14.8594C6.32065 14.4844 6.2194 14.0981 5.96253 13.7888C5.70753 13.4775 5.3494 13.3013 4.97628 13.2544C5.00253 12.8794 4.8994 12.4931 4.6444 12.1838C4.11753 11.5388 3.1519 11.445 2.50878 11.9738L2.34378 12.1088L1.33128 10.875C1.2244 10.7381 1.0519 10.6706 0.879401 10.6969C0.708776 10.725 0.564401 10.8431 0.504401 11.0044C0.444401 11.1675 0.476276 11.3494 0.588776 11.4825L1.66315 12.7931C1.33315 13.3294 1.34253 14.0363 1.76253 14.55C2.0194 14.8594 2.37753 15.0356 2.75065 15.0825C2.7244 15.4575 2.82565 15.8438 3.08065 16.155C3.33753 16.4644 3.69378 16.6406 4.0669 16.6875C4.04065 17.0625 4.14378 17.4488 4.39878 17.76C4.65378 18.0694 5.0119 18.2456 5.38503 18.2925C5.35878 18.6675 5.4619 19.0538 5.7169 19.365C6.1369 19.8769 6.82878 20.025 7.4194 19.8038L8.38878 20.9831C8.94378 21.6563 9.9319 21.7969 10.6519 21.3038C11.0419 21.0375 11.2725 20.6306 11.3475 20.1994C11.8107 20.3288 12.2982 20.325 12.7219 20.0438C13.1213 19.7775 13.3594 19.3669 13.4363 18.93C13.8975 19.0594 14.3832 19.0556 14.805 18.7781C15.2082 18.5119 15.45 18.0994 15.5288 17.6588C15.99 17.79 16.4775 17.7863 16.9013 17.5069C17.5407 17.085 17.7863 16.3013 17.5838 15.6113C17.5988 15.6038 17.6119 15.5963 17.625 15.5888L23.5407 11.9644L19.1644 4.85814L12.45 8.96626C12.4369 8.94939 12.4219 8.93439 12.405 8.92126C12.405 8.91939 12.405 8.91939 12.4032 8.91939C12.3432 8.83689 12.2588 8.77689 12.1613 8.74689C11.535 8.54064 11.1507 8.29314 11.1507 8.29314C10.98 8.18251 10.7588 8.19376 10.5975 8.31939L8.0944 10.2731C7.6969 10.5844 7.13628 10.515 6.82503 10.1175C6.51378 9.71814 6.58315 9.15751 6.98065 8.84626L10.1307 6.38814C10.8732 5.80876 11.8688 5.67001 12.7425 6.02439L12.8325 6.06189C13.2732 6.24001 13.7644 6.24376 14.2069 6.07314C14.2332 6.06376 14.2575 6.05064 14.28 6.03751L16.1813 4.90126C16.3669 4.79251 16.4588 4.57314 16.4044 4.36501C16.3519 4.15501 16.1644 4.00876 15.9488 4.00501ZM18.8494 6.17626L22.2188 11.6475L17.1244 14.7694C17.115 14.775 17.1038 14.7825 17.0944 14.79L16.8432 14.475C17.9513 13.7475 18.1444 12.1369 17.3738 10.9069C16.7907 9.95251 15.78 9.39189 14.8238 9.47064C14.505 9.49501 14.1957 9.59251 13.9088 9.76876C13.7175 9.87751 13.5544 10.0163 13.4157 10.1738L13.0557 9.72189L18.8494 6.17626ZM19.1494 8.95314C19.0088 8.94564 18.8644 8.98126 18.735 9.05814H18.7332C18.3882 9.26814 18.2794 9.71814 18.4894 10.0631C18.6994 10.41 19.1494 10.5188 19.4944 10.3088C19.8394 10.0988 19.9482 9.64876 19.7382 9.30376C19.6088 9.08814 19.3838 8.96439 19.1494 8.95314ZM14.9232 10.4288C15.4838 10.3931 16.14 10.7269 16.5544 11.4075L16.5582 11.415C17.1038 12.2813 16.9032 13.3144 16.2882 13.6931H16.2863C16.2694 13.7025 16.2544 13.71 16.2413 13.7194L14.0288 10.9463C14.1207 10.8 14.2369 10.6838 14.3888 10.5975L14.3963 10.5938L14.4019 10.5881C14.5575 10.4944 14.7357 10.44 14.9213 10.4288H14.9232ZM3.5269 12.5869C3.66753 12.6019 3.8044 12.6713 3.90378 12.7913C4.10253 13.035 4.06878 13.3781 3.8269 13.5769L3.29253 14.0156C3.04878 14.2163 2.70378 14.1825 2.50503 13.9388C2.31003 13.7006 2.34378 13.3706 2.5744 13.1681C2.59878 13.1494 2.62315 13.1269 2.64378 13.1025L3.11815 12.7144C3.23815 12.615 3.38628 12.5738 3.5269 12.5869ZM4.84503 14.1919C4.98565 14.2069 5.12253 14.2763 5.2219 14.3963C5.42065 14.64 5.3869 14.9831 5.14503 15.1819L4.61065 15.6206C4.3669 15.8213 4.0219 15.7875 3.82315 15.5438C3.6244 15.3019 3.65815 14.9588 3.90003 14.7581L4.43628 14.3194C4.55628 14.22 4.7044 14.1788 4.84503 14.1919ZM6.16315 15.7969C6.30378 15.8119 6.43878 15.8813 6.54003 16.0013C6.73878 16.245 6.70503 16.5881 6.46315 16.7869L5.9269 17.2275C5.68503 17.4263 5.34003 17.3925 5.14128 17.1506V17.1488C4.94253 16.9069 4.97628 16.5638 5.21815 16.3631L5.75253 15.9244H5.7544C5.8744 15.8269 6.02065 15.7838 6.16315 15.7969ZM7.48128 17.4019C7.6219 17.4169 7.7569 17.4863 7.85815 17.6063C8.0569 17.85 8.02315 18.1931 7.7794 18.3938L7.30878 18.78C7.28065 18.7969 7.25253 18.8156 7.22815 18.8381C6.98628 19.0238 6.6544 18.9919 6.4594 18.7556C6.26065 18.5119 6.2944 18.1688 6.53628 17.9681L7.07065 17.5294H7.07253C7.19253 17.4319 7.33878 17.3888 7.48128 17.4019Z" fill="white" fill-opacity="0.7"/>
</svg>
