<svg fill="#000000" xmlns="http://www.w3.org/2000/svg"  viewBox="0 0 50 50" width="18px" height="18px"><path d="M 25 4.96875 L 24.75 5.03125 C 24.75 5.03125 21.769531 5.785156 18.28125 6.53125 C 14.792969 7.277344 10.71875 8 9 8 L 8 8 L 8 28 C 8 34.414063 12.28125 39.175781 16.40625 42.28125 C 20.53125 45.386719 24.65625 46.9375 24.65625 46.9375 L 25 47.0625 L 25.34375 46.9375 C 25.34375 46.9375 29.464844 45.40625 33.59375 42.3125 C 37.722656 39.21875 42 34.457031 42 28 L 42 8 L 41 8 C 39.28125 8 35.207031 7.277344 31.71875 6.53125 C 28.230469 5.785156 25.25 5.03125 25.25 5.03125 Z M 25 7.03125 C 25.21875 7.085938 27.921875 7.742188 31.3125 8.46875 C 34.433594 9.136719 37.707031 9.757813 40 9.90625 L 40 28 C 40 33.570313 36.277344 37.816406 32.40625 40.71875 C 28.8125 43.410156 25.496094 44.714844 25 44.90625 C 24.503906 44.710938 21.191406 43.390625 17.59375 40.6875 C 13.71875 37.773438 10 33.519531 10 28 L 10 9.90625 C 12.292969 9.757813 15.566406 9.136719 18.6875 8.46875 C 22.078125 7.742188 24.78125 7.085938 25 7.03125 Z M 25 9.09375 L 24.75 9.15625 C 22.3125 9.746094 16.96875 10.996094 12.84375 11.625 L 12 11.75 L 12 28 C 12 32.007813 14.34375 35.25 17.03125 37.65625 C 19.71875 40.0625 22.792969 41.691406 24.5625 42.53125 L 25 42.75 L 25.4375 42.53125 C 27.214844 41.691406 30.28125 40.0625 32.96875 37.65625 C 35.65625 35.25 38 32.003906 38 28 L 38 11.75 L 37.15625 11.625 C 33.035156 10.996094 27.6875 9.746094 25.25 9.15625 Z M 25 11.15625 C 27.34375 11.722656 32.007813 12.742188 36 13.40625 L 36 13.4375 L 14 28.09375 C 14 28.0625 14 28.03125 14 28 L 14 13.40625 C 17.992188 12.742188 22.65625 11.722656 25 11.15625 Z M 36 15.875 L 36 20.125 L 15.9375 33.5 C 15.226563 32.511719 14.675781 31.476563 14.34375 30.34375 C 14.339844 30.335938 14.347656 30.320313 14.34375 30.3125 Z M 19 16.5 L 17 19 L 19 21.5 L 21 19 Z M 36 22.53125 L 36 28 C 36 31.214844 34.078125 33.957031 31.625 36.15625 C 29.339844 38.203125 26.710938 39.632813 25 40.46875 C 23.292969 39.636719 20.660156 38.234375 18.375 36.1875 C 17.972656 35.828125 17.585938 35.453125 17.21875 35.0625 Z M 31 28.5 L 29 31 L 31 33.5 L 33 31 Z"/></svg>