<svg width="18" height="19" viewBox="0 0 18 19" fill="none" xmlns="http://www.w3.org/2000/svg">
<circle cx="9" cy="9" r="9" fill="#FFB800"/>
<path fill-rule="evenodd" clip-rule="evenodd" d="M9.25 4C6.3625 4 4 6.3625 4 9.25C4 12.1375 6.3625 14.5 9.25 14.5C11.6781 14.5 13.7125 12.7938 14.5 10.5625H13.1875C12.4 12.0719 10.9562 13.1875 9.25 13.1875C7.08438 13.1875 5.3125 11.4156 5.3125 9.25C5.3125 7.08438 7.08438 5.3125 9.25 5.3125C10.3656 5.3125 11.2844 5.77188 11.875 6.625L9.90625 8.59375H14.5V4L13.1875 5.3125C12.0063 4.65625 10.6938 4 9.25 4Z" fill="white"/>
</svg>
